<svg width="312" height="110" viewBox="0 0 312 110" fill="none" xmlns="http://www.w3.org/2000/svg">
<path d="M125.016 59.84C125.016 55.712 125.784 52.088 127.32 48.968C128.904 45.848 131.04 43.448 133.728 41.768C136.416 40.088 139.416 39.248 142.728 39.248C145.56 39.248 148.032 39.824 150.144 40.976C152.304 42.128 153.96 43.64 155.112 45.512V39.824H167.424V80H155.112V74.312C153.912 76.184 152.232 77.696 150.072 78.848C147.96 80 145.488 80.576 142.656 80.576C139.392 80.576 136.416 79.736 133.728 78.056C131.04 76.328 128.904 73.904 127.32 70.784C125.784 67.616 125.016 63.968 125.016 59.84ZM155.112 59.912C155.112 56.84 154.248 54.416 152.52 52.64C150.84 50.864 148.776 49.976 146.328 49.976C143.88 49.976 141.792 50.864 140.064 52.64C138.384 54.368 137.544 56.768 137.544 59.84C137.544 62.912 138.384 65.36 140.064 67.184C141.792 68.96 143.88 69.848 146.328 69.848C148.776 69.848 150.84 68.96 152.52 67.184C154.248 65.408 155.112 62.984 155.112 59.912ZM200.811 39.392C205.515 39.392 209.259 40.928 212.043 44C214.875 47.024 216.291 51.2 216.291 56.528V80H204.051V58.184C204.051 55.496 203.355 53.408 201.963 51.92C200.571 50.432 198.699 49.688 196.347 49.688C193.995 49.688 192.123 50.432 190.731 51.92C189.339 53.408 188.643 55.496 188.643 58.184V80H176.331V39.824H188.643V45.152C189.891 43.376 191.571 41.984 193.683 40.976C195.795 39.92 198.171 39.392 200.811 39.392ZM222.399 59.84C222.399 55.712 223.167 52.088 224.703 48.968C226.287 45.848 228.423 43.448 231.111 41.768C233.799 40.088 236.799 39.248 240.111 39.248C242.751 39.248 245.151 39.8 247.311 40.904C249.519 42.008 251.247 43.496 252.495 45.368V26.72H264.807V80H252.495V74.24C251.343 76.16 249.687 77.696 247.527 78.848C245.415 80 242.943 80.576 240.111 80.576C236.799 80.576 233.799 79.736 231.111 78.056C228.423 76.328 226.287 73.904 224.703 70.784C223.167 67.616 222.399 63.968 222.399 59.84ZM252.495 59.912C252.495 56.84 251.631 54.416 249.903 52.64C248.223 50.864 246.159 49.976 243.711 49.976C241.263 49.976 239.175 50.864 237.447 52.64C235.767 54.368 234.927 56.768 234.927 59.84C234.927 62.912 235.767 65.36 237.447 67.184C239.175 68.96 241.263 69.848 243.711 69.848C246.159 69.848 248.223 68.96 249.903 67.184C251.631 65.408 252.495 62.984 252.495 59.912ZM279.906 35.648C277.746 35.648 275.97 35.024 274.578 33.776C273.234 32.48 272.562 30.896 272.562 29.024C272.562 27.104 273.234 25.52 274.578 24.272C275.97 22.976 277.746 22.328 279.906 22.328C282.018 22.328 283.746 22.976 285.09 24.272C286.482 25.52 287.178 27.104 287.178 29.024C287.178 30.896 286.482 32.48 285.09 33.776C283.746 35.024 282.018 35.648 279.906 35.648ZM286.026 39.824V80H273.714V39.824H286.026ZM307.26 26.72V80H294.948V26.72H307.26Z" fill="#404040"/>
<path d="M110 55C110 85.3757 85.3757 110 55 110C24.6243 110 0 85.3757 0 55C0 24.6243 24.6243 0 55 0C85.3757 0 110 24.6243 110 55Z" fill="#FFDA44"/>
<path d="M81.6211 71.3397C82.3107 67.5357 79.786 63.8929 75.9821 63.2033L64.1745 61.0627C60.3705 60.373 56.7277 62.8977 56.0381 66.7017L53.8975 78.5092C53.2079 82.3132 55.7326 85.956 59.5365 86.6457L76.2639 89.6782C77.3507 89.8752 78.3915 89.1539 78.5886 88.067L81.6211 71.3397Z" fill="white"/>
<rect width="58" height="26" rx="7" transform="matrix(-0.983961 -0.178384 -0.178384 0.983961 89.2387 31.0538)" fill="white"/>
<rect width="58" height="26" rx="7" transform="matrix(-0.178384 0.983961 0.983961 0.178384 30.8667 22.1978)" fill="white"/>
</svg>
