<svg width="110" height="110" viewBox="0 0 110 110" fill="none" xmlns="http://www.w3.org/2000/svg">
<path d="M110 55C110 85.3757 85.3757 110 55 110C24.6243 110 0 85.3757 0 55C0 24.6243 24.6243 0 55 0C85.3757 0 110 24.6243 110 55Z" fill="#FFDA44"/>
<path d="M81.6211 71.3397C82.3107 67.5357 79.786 63.8929 75.9821 63.2033L64.1745 61.0627C60.3705 60.373 56.7277 62.8977 56.0381 66.7017L53.8975 78.5092C53.2079 82.3132 55.7326 85.956 59.5365 86.6457L76.2639 89.6782C77.3507 89.8752 78.3915 89.1539 78.5886 88.067L81.6211 71.3397Z" fill="white"/>
<rect width="58" height="26" rx="7" transform="matrix(-0.983961 -0.178384 -0.178384 0.983961 89.2387 31.0538)" fill="white"/>
<rect width="58" height="26" rx="7" transform="matrix(-0.178384 0.983961 0.983961 0.178384 30.8667 22.1978)" fill="white"/>
</svg>
